# xmcd
#
# Track frame offsets:
#	150
#	9967
#	39199
#	74805
#	106667
#	126813
#	166251
#	179542
#	203949
#	241320
#	282756
#
# Disc length: 4011 seconds
#
# Revision: 1
# Processed by: cddbd v1.5.2PL0 Copyright (c) Steve Scherf et al.
# Submitted via: audiograbber 1.83.01
#
DISCID=900fa90b
DTITLE=Grateful Dead - 79-11-10 Crisler Arena, Ann Arbor MI
DYEAR=1900
DGENRE=
TTITLE0=Tuning
TTITLE1=Cold Rain and Snow
TTITLE2=Minglewood Blues
TTITLE3=Peggy-O
TTITLE4=El Paso
TTITLE5=High Time
TTITLE6=Me and My Uncle
TTITLE7=Big River
TTITLE8=Ramble On Rose
TTITLE9=Looks Like Rain
TTITLE10=Dire Wolf
EXTD=
EXTT0=
EXTT1=
EXTT2=
EXTT3=
EXTT4=
EXTT5=
EXTT6=
EXTT7=
EXTT8=
EXTT9=
EXTT10=
PLAYORDER=
